<svg width="160" height="73" viewBox="0 0 160 73" fill="none" xmlns="http://www.w3.org/2000/svg">
<g clip-path="url(#clip0_4785_9675)">
<path d="M102.442 65.1495C92.561 62.9238 86.4963 56.9459 84.2486 47.2137C83.3768 43.3061 83.4802 38.9631 84.557 34.1823C85.9611 27.9481 89.0628 20.8414 93.8624 12.8603L87.6126 11.4526L89.5433 2.88055L129.783 11.7996L127.742 20.8409L105.023 15.3739C99.7488 23.7948 96.4454 30.9645 95.1114 36.887C94.3392 40.3158 94.2369 43.4043 94.8069 46.1528C95.5433 49.2664 96.7543 51.6681 98.4377 53.3573C100.121 55.0466 102.302 56.1928 104.981 56.7961C107.659 57.3994 110.672 57.5601 114.198 57.3164C117.723 57.0747 122.237 56.5357 127.742 55.6999L125.601 65.2071C115.994 66.4822 108.275 66.4631 102.442 65.1495Z" fill="black"/>
</g>
<path fill-rule="evenodd" clip-rule="evenodd" d="M143.88 1.8942C145.96 1.75211 148.305 1.99779 150.364 3.05276C155.312 5.58835 158.099 10.2162 158.365 15.1764C158.585 19.2877 157.04 22.7361 155.316 25.5057C156.751 25.9595 158.309 26.3952 160.001 26.8063L157.895 35.6027C154.93 34.8822 152.245 34.0714 149.821 33.1831C149.447 33.7409 149.11 34.2803 148.815 34.8143C147.377 37.412 146.361 39.9315 145.853 43.3091C145.333 46.7719 145.318 51.3335 146.169 58.0193L137.261 59.1703C136.35 52.0105 136.285 46.5414 136.974 41.9542C137.676 37.2818 139.131 33.7319 140.972 30.4062C141.174 30.041 141.385 29.6817 141.601 29.3288C139.215 27.8932 137.253 26.3481 135.666 24.7245C131.755 20.7234 131.104 15.1899 132.648 10.7197C134.201 6.22385 138.172 2.28422 143.88 1.8942ZM146.878 21.9521C146.924 21.8853 146.971 21.8183 147.017 21.7511C148.764 19.2048 149.49 17.3937 149.398 15.6648C149.303 13.9085 148.365 12.18 146.293 11.1182C146.133 11.0361 145.548 10.8496 144.488 10.9221C142.938 11.0279 141.698 12.0481 141.13 13.6936C140.553 15.3649 140.871 17.1544 142.064 18.3754C143.183 19.5197 144.742 20.7421 146.878 21.9521Z" fill="black"/>
<path fill-rule="evenodd" clip-rule="evenodd" d="M138.329 65.8899C138.103 64.2751 137.886 62.7197 137.749 61.5048L146.734 60.4942C146.866 61.6698 147.047 62.9558 147.251 64.4035C147.419 65.5978 147.602 66.902 147.787 68.345L138.819 69.4913C138.671 68.3357 138.498 67.0962 138.329 65.8899Z" fill="black"/>
<path fill-rule="evenodd" clip-rule="evenodd" d="M31.3528 9.66644C24.6587 7.95277 19.3606 9.75986 17.2719 13.3133L9.47191 8.73443C14.4935 0.191373 25.0171 -1.28771 33.5976 0.90888C42.3873 3.15899 51.2608 9.63923 54.2761 19.8628C54.9271 22.07 55.3466 24.3517 55.5427 26.6578C60.4328 29.9146 65.3852 33.8015 70.3141 38.2173L64.2756 44.9487C61.0934 42.0978 57.9589 39.5324 54.8968 37.2598C54.3756 39.7668 53.5952 42.2094 52.5666 44.5194C47.202 56.5672 32.7945 66.9837 15.3577 61.2795C8.11803 58.9112 3.37981 53.1941 1.28219 46.941C-0.793873 40.7522 -0.447248 33.5623 3.04599 27.8498C6.27648 22.5669 10.6207 18.893 15.8783 16.9619C21.0797 15.0515 26.8217 14.9742 32.715 16.2398C36.6463 17.084 40.7335 18.5435 44.9179 20.5492C42.5239 15.064 37.1943 11.1618 31.3528 9.66644ZM46.5573 31.6819C40.8818 28.3193 35.5721 26.1 30.8145 25.0783C26.1428 24.0751 22.209 24.2683 18.9989 25.4473C15.845 26.6057 13.0421 28.84 10.7649 32.5639C8.87935 35.6474 8.4925 39.9932 9.85925 44.0675C11.2044 48.0776 14.0853 51.3509 18.172 52.6878C30.2391 56.6354 40.381 49.6493 44.3018 40.844C45.5736 37.9878 46.3347 34.8482 46.5573 31.6819Z" fill="#4F46E5"/>
<path fill-rule="evenodd" clip-rule="evenodd" d="M68.1171 46.5013C61.5943 33.4192 62.5963 17.5232 69.7949 4.09429L77.7634 8.36586C71.7465 19.5903 71.1756 32.3734 76.2083 42.4669L68.1171 46.5013Z" fill="#4F46E5"/>
<path fill-rule="evenodd" clip-rule="evenodd" d="M52.3258 61.1353C51.647 62.4165 50.9369 63.7569 50.1716 65.172L58.1242 69.473C58.9269 67.9888 59.6579 66.6114 60.3433 65.32C65.1875 56.1919 67.7543 51.3554 77.2608 43.4333L71.4727 36.4876C60.5707 45.5727 57.2857 51.7733 52.3258 61.1353Z" fill="#4F46E5"/>
<defs>
<clipPath id="clip0_4785_9675">
<rect width="53.0673" height="62.885" fill="white" transform="matrix(0.975561 0.21973 -0.219728 0.975561 89.6367 0)"/>
</clipPath>
</defs>
</svg>
