<svg width="16" height="15" viewBox="0 0 16 15" fill="none" xmlns="http://www.w3.org/2000/svg">
<path d="M1.33594 14.1681H14.6693M1.33594 14.1681V10.8347L8.0026 4.16807M1.33594 14.1681L4.66927 14.168L11.3359 7.50139M8.0026 4.16807L10.3931 1.77752L10.3946 1.7761C10.7236 1.44703 10.8885 1.28221 11.0785 1.22047C11.2458 1.16609 11.4261 1.16609 11.5935 1.22047C11.7834 1.28216 11.948 1.4468 12.2766 1.77541L13.7264 3.22524C14.0565 3.55525 14.2215 3.72033 14.2834 3.91061C14.3377 4.07798 14.3377 4.25826 14.2833 4.42563C14.2216 4.61577 14.0567 4.7806 13.7272 5.11015L13.7265 5.11085L11.3359 7.50139M8.0026 4.16807L11.3359 7.50139" stroke="#F1F3F5" stroke-width="1.5" stroke-linecap="round" stroke-linejoin="round"/>
</svg>
